<svg xmlns="http://www.w3.org/2000/svg" width="291.436" height="140.72" viewBox="0 0 291.436 140.72">
  <g id="Group_42" data-name="Group 42" transform="translate(-4936 1381)">
    <g id="Yellow_black_FB" data-name="Yellow/black_FB" transform="translate(1524 -874)">
      <g id="Group_37" data-name="Group 37" transform="translate(2630.726 -994.923)">
        <path id="Path_68" data-name="Path 68" d="M1024.953,603.15a9.715,9.715,0,0,0-2.993-.382h-3.465l-2.79,17.775h3.78a6.786,6.786,0,0,0,2.723-.518,5.254,5.254,0,0,0,2.047-1.6,9.339,9.339,0,0,0,1.44-2.79,26.437,26.437,0,0,0,.991-4.14q.223-1.575.359-2.723a16.219,16.219,0,0,0,.136-1.732,5.168,5.168,0,0,0-.54-2.588A2.957,2.957,0,0,0,1024.953,603.15Z" fill="none"/>
        <path id="Path_69" data-name="Path 69" d="M923.367,603.15a2.912,2.912,0,0,0-1.665-.382h-4.41l-.855,5.31h4.68a2.263,2.263,0,0,0,1.867-.652,3.6,3.6,0,0,0,.7-1.418c.059-.33.112-.615.157-.855a3.672,3.672,0,0,0,.067-.675A1.515,1.515,0,0,0,923.367,603.15Z" fill="none"/>
        <path id="Path_70" data-name="Path 70" d="M829.5,615.233h5.984l-.944-12.87Z" fill="none"/>
        <path id="Path_71" data-name="Path 71" d="M935.729,496.977l-.1-.01.1.011Z" fill="none"/>
        <path id="Path_72" data-name="Path 72" d="M922.31,615.165a3.934,3.934,0,0,0-2.228-.472H915.4l-.9,5.85h4.815a5.684,5.684,0,0,0,1.912-.27,2.189,2.189,0,0,0,1.148-.923,4.359,4.359,0,0,0,.54-1.777,2.369,2.369,0,0,0,.045-.45v-.45A1.738,1.738,0,0,0,922.31,615.165Z" fill="none"/>
        <path id="Path_73" data-name="Path 73" d="M871.985,514.926l0,0c.569-.442,1.14-.879,1.715-1.3Q872.84,514.261,871.985,514.926Z" fill="none"/>
        <path id="Path_74" data-name="Path 74" d="M937.008,497.387c-.037-.021-.079-.032-.117-.052.5.288.98.589,1.466.887C937.905,497.945,937.47,497.655,937.008,497.387Z" fill="none"/>
        <path id="Path_75" data-name="Path 75" d="M1037.7,544.794h-11.3c-2.964,0-4.656,3.025-2.876,5.143l.054.065a3.757,3.757,0,0,0,2.876,1.285h11.3c2.964,0,4.656-3.025,2.876-5.143l-.054-.065A3.757,3.757,0,0,0,1037.7,544.794Z" fill="#ceba00"/>
        <path id="Path_76" data-name="Path 76" d="M991.432,511.991l.049.065a3.3,3.3,0,0,0,2.617,1.284h10.281A3.21,3.21,0,0,0,1007,508.2l-.049-.065a3.3,3.3,0,0,0-2.618-1.284h-10.28A3.21,3.21,0,0,0,991.432,511.991Z" fill="#ceba00"/>
        <path id="Path_77" data-name="Path 77" d="M1009.194,495.755a3.756,3.756,0,0,0,2.877,1.285h11.3c2.963,0,4.655-3.025,2.876-5.144l-.055-.065a3.758,3.758,0,0,0-2.876-1.284h-11.3c-2.964,0-4.656,3.025-2.876,5.143Z" fill="#ceba00"/>
        <path id="Path_78" data-name="Path 78" d="M1071.983,569.2l-1.433-1.705a3.753,3.753,0,0,0-2.876-1.284h-12.9c-2.964,0-4.656,3.024-2.876,5.143l1.432,1.7a3.757,3.757,0,0,0,2.877,1.285h12.9C1072.071,574.346,1073.762,571.321,1071.983,569.2Z" fill="#ceba00"/>
        <path id="Path_79" data-name="Path 79" d="M913.086,487.923H900.915l.023.056C904.308,487.99,908.591,487.925,913.086,487.923Z" fill="#999"/>
        <path id="Path_80" data-name="Path 80" d="M1053.32,527.292l-6.822-8.054a3.756,3.756,0,0,0-2.867-1.275H980.448a3.753,3.753,0,0,1-2.876-1.284L968.935,506.4c-1.779-2.119-.088-5.144,2.876-5.144h24.383c2.964,0,4.655-3.024,2.876-5.143l-5.762-6.858a3.754,3.754,0,0,0-2.876-1.285H947.994l.031-.045H913.086c2.7,0,5.471.021,8.169.1q.708.02,1.408.044c.187.007.368.017.554.024,0,.1-.011.2-.007.294,0,.028.006.056.007.084-.561,0-1.115,0-1.691.007-2.06.035-4.214.128-6.434.289-1.071.078-2.158.174-3.254.286-.373.038-.751.088-1.125.129-.723.081-1.445.158-2.173.25l-.049.006c-.331.042-.658.073-.99.118-.63.086-1.262.185-1.895.281a91.777,91.777,0,0,0-20.7,5.433c-9.116,3.745-16.393,10.288-22.13,17.669q-.39.5-.77,1.008c-.972,1.294-1.881,2.615-2.763,3.944a110.7,110.7,0,0,0-14.886,34.852c6.967-17.411,16.874-29.467,27.627-37.809l0,0q.855-.665,1.718-1.3.34-.25.682-.495,1.012-.727,2.033-1.415c.126-.084.252-.174.378-.257q1.2-.795,2.4-1.53c.21-.13.42-.254.631-.381q.946-.57,1.9-1.108c.214-.122.428-.245.642-.364q1.207-.67,2.416-1.293c.108-.056.216-.107.324-.162q1.066-.54,2.132-1.043.348-.165.7-.325,1.011-.467,2.018-.9c.146-.063.292-.129.437-.191q1.2-.512,2.4-.976c.2-.08.407-.155.611-.233q.941-.359,1.875-.692c.219-.078.437-.157.655-.233.79-.275,1.577-.54,2.359-.788.077-.025.153-.046.23-.071q1.074-.338,2.135-.642c.221-.064.442-.126.663-.188q.949-.267,1.886-.509c.152-.04.3-.082.457-.12q1.136-.288,2.253-.542c.183-.042.365-.08.548-.121q.879-.2,1.746-.372l.611-.123c.724-.142,1.444-.278,2.151-.4l.127-.021c.674-.116,1.337-.222,1.994-.322l.591-.088q.828-.12,1.635-.225c.145-.019.293-.04.437-.058q.992-.124,1.95-.225l.455-.046q.756-.076,1.49-.14l.526-.045c.609-.049,1.209-.1,1.792-.132.479-.03.947-.056,1.407-.079l.446-.02c.307-.014.611-.027.91-.038l.493-.016c.278-.009.552-.016.822-.023l.463-.01c.278-.005.549-.008.818-.011l.4,0q.516,0,1.006,0h.13c.368,0,.724.007,1.069.013l.317.007c.233.005.463.01.686.017l.352.011.594.022.317.013c.2.008.381.018.564.027l.264.014.62.036.118.008q.35.023.658.046l.175.014c.139.01.273.021.4.032l.188.016.3.028.152.014.1.01h.005c.346.035.589.063.692.076.159.09.307.19.465.281.038.02.08.031.117.052.462.268.9.558,1.349.835.522.321,1.052.634,1.561.967.53.346,1.038.709,1.553,1.068.494.344,1,.682,1.477,1.037.5.37.981.756,1.467,1.137.466.366.94.726,1.393,1.1.473.392.925.8,1.384,1.2.439.385.886.765,1.312,1.159.445.412.87.837,1.3,1.258.414.4.835.8,1.236,1.215.419.43.818.872,1.223,1.311.388.419.783.833,1.158,1.26.4.448.77.907,1.152,1.363.361.431.73.858,1.079,1.3.37.463.721.935,1.078,1.4.337.444.683.884,1.009,1.333.345.474.67.956,1,1.435.316.456.639.908.944,1.368.321.485.623.975.932,1.464.294.464.6.926.877,1.393.3.494.579.992.866,1.489.272.471.551.939.813,1.412.277.5.536,1,.8,1.506.251.475.509.949.751,1.426.256.506.495,1.014.741,1.522.23.477.468.952.689,1.43.237.511.457,1.022.683,1.534.211.476.428.951.63,1.427.216.51.416,1.019.623,1.528.193.478.394.956.579,1.434.2.508.379,1.013.566,1.519.176.475.359.951.527,1.425.18.509.346,1.014.518,1.521.158.467.322.935.472,1.4.163.5.312,1,.466,1.5.143.462.292.927.427,1.387.147.5.28.985.418,1.477.127.453.261.91.381,1.358.133.494.252.979.377,1.467.111.437.229.879.334,1.311.117.482.222.953.332,1.428.1.428.2.86.295,1.281.1.475.2.935.293,1.4.085.408.175.823.254,1.224.092.466.173.917.258,1.374.072.387.149.781.216,1.16.078.445.145.871.217,1.3.062.376.129.759.187,1.127.066.424.122.829.182,1.242.052.357.109.723.156,1.071.057.412.1.8.154,1.2.041.328.087.667.125.986.046.392.083.76.124,1.138.033.3.07.618.1.912.035.349.062.673.092,1.009.027.3.057.607.081.893.028.352.05.676.073,1.01.017.24.038.494.053.724.022.358.038.684.055,1.017.009.181.022.378.03.551l.065,8.456h65.879a4.418,4.418,0,0,0,3.543-7.056l-4.1-5.509a5.6,5.6,0,0,0-.683-1.049l-2.556-3.041a3.752,3.752,0,0,0-2.875-1.285h-49.56a3.758,3.758,0,0,1-2.876-1.284l-2.121-2.525c-1.779-2.119-.088-5.143,2.876-5.143h26.313c2.964,0,4.656-3.025,2.876-5.143l-5.761-6.859a3.755,3.755,0,0,0-2.876-1.285h-26.9a3.753,3.753,0,0,1-2.876-1.284l-2.121-2.525c-1.78-2.118-.088-5.143,2.876-5.143h74.9C1053.423,532.445,1055.113,529.409,1053.32,527.292Z" fill="#ceba00"/>
        <path id="Path_81" data-name="Path 81" d="M976.4,572.569c-.017-.333-.033-.659-.055-1.017-.015-.23-.036-.484-.053-.724-.023-.334-.045-.658-.073-1.01-.024-.286-.054-.6-.081-.893-.03-.336-.057-.66-.092-1.009-.029-.294-.066-.609-.1-.912-.041-.378-.078-.746-.124-1.138-.038-.319-.084-.658-.125-.986-.051-.4-.1-.789-.154-1.2-.047-.348-.1-.714-.156-1.071-.06-.413-.116-.818-.182-1.242-.058-.368-.125-.751-.187-1.127-.072-.434-.139-.86-.217-1.3-.067-.379-.144-.773-.216-1.16-.085-.457-.166-.908-.258-1.374-.079-.4-.169-.816-.254-1.224-.1-.466-.189-.926-.293-1.4-.093-.421-.2-.853-.295-1.281-.11-.475-.215-.946-.332-1.428-.1-.432-.223-.874-.334-1.311-.125-.488-.244-.973-.377-1.467-.12-.448-.254-.905-.381-1.358-.138-.492-.271-.981-.418-1.477-.135-.46-.284-.925-.427-1.387-.154-.5-.3-1-.466-1.5-.15-.465-.314-.933-.472-1.4-.172-.507-.338-1.012-.518-1.521-.168-.474-.351-.95-.527-1.425-.187-.506-.369-1.011-.566-1.519-.185-.478-.386-.956-.579-1.434-.207-.509-.407-1.018-.623-1.528-.2-.476-.419-.951-.63-1.427-.226-.512-.446-1.023-.683-1.534-.221-.478-.459-.953-.689-1.43-.246-.508-.485-1.016-.741-1.522-.242-.477-.5-.951-.751-1.426-.265-.5-.524-1.006-.8-1.506-.262-.473-.541-.941-.813-1.412-.287-.5-.567-.995-.866-1.489-.282-.467-.583-.929-.877-1.393-.309-.489-.611-.979-.932-1.464-.3-.46-.628-.912-.944-1.368-.332-.479-.657-.961-1-1.435-.326-.449-.672-.889-1.009-1.333-.357-.47-.708-.942-1.078-1.4-.349-.438-.718-.865-1.079-1.3-.382-.456-.757-.915-1.152-1.363-.375-.427-.77-.841-1.158-1.26-.4-.439-.8-.881-1.223-1.311-.4-.412-.822-.811-1.236-1.215-.431-.421-.856-.846-1.3-1.258-.426-.394-.873-.774-1.312-1.159-.459-.4-.911-.81-1.384-1.2-.453-.375-.927-.735-1.393-1.1-.486-.381-.966-.767-1.467-1.137-.481-.355-.983-.693-1.477-1.037-.515-.359-1.023-.722-1.553-1.068-.509-.333-1.039-.646-1.561-.967-.486-.3-.968-.6-1.466-.887-.158-.091-.306-.191-.465-.281-.1-.013-.346-.041-.692-.076l-.1-.011-.152-.014-.3-.028-.188-.016c-.125-.011-.259-.022-.4-.032l-.175-.014q-.309-.024-.658-.046l-.118-.008-.62-.036-.264-.014c-.183-.009-.369-.019-.564-.027l-.317-.013-.594-.022-.352-.011c-.223-.007-.453-.012-.686-.017l-.317-.007c-.345-.006-.7-.011-1.069-.013h-.13q-.49,0-1.006,0l-.4,0c-.269,0-.54.006-.818.011l-.463.01c-.27.007-.544.014-.822.023l-.493.016c-.3.011-.6.024-.91.038l-.446.02c-.46.023-.928.049-1.407.079-.583.037-1.183.083-1.792.132l-.526.045q-.733.064-1.49.14l-.455.046q-.959.1-1.95.225c-.144.018-.292.039-.437.058q-.807.1-1.635.225l-.591.088c-.657.1-1.32.206-1.994.322l-.127.021c-.707.123-1.427.259-2.151.4l-.611.123q-.865.177-1.746.372c-.183.041-.365.079-.548.121q-1.117.255-2.253.542c-.152.038-.3.08-.457.12q-.937.242-1.886.509c-.221.062-.442.124-.663.188q-1.062.306-2.135.642c-.077.025-.153.046-.23.071-.782.248-1.569.513-2.359.788-.218.076-.436.155-.655.233q-.934.333-1.875.692c-.2.078-.407.153-.611.233q-1.2.466-2.4.976c-.145.062-.291.128-.437.191q-1.008.434-2.018.9-.348.16-.7.325-1.065.5-2.132,1.043c-.108.055-.216.106-.324.162q-1.209.619-2.416,1.293c-.214.119-.428.242-.642.364q-.949.537-1.9,1.108c-.211.127-.421.251-.631.381q-1.2.738-2.4,1.53c-.126.083-.252.173-.378.257q-1.02.687-2.033,1.415-.342.245-.682.495c-.575.421-1.146.858-1.715,1.3-10.753,8.342-20.66,20.4-27.627,37.809a110.7,110.7,0,0,1,14.886-34.852c.882-1.329,1.791-2.65,2.763-3.944q.381-.507.77-1.008c5.737-7.381,13.014-13.924,22.13-17.669a91.777,91.777,0,0,1,20.7-5.433c.633-.1,1.265-.2,1.895-.281.332-.045.659-.076.99-.118l.049-.006c.728-.092,1.45-.169,2.173-.25.374-.041.752-.091,1.125-.129,1.1-.112,2.183-.208,3.254-.286,2.22-.161,4.374-.254,6.434-.289.576-.01,1.13-.007,1.691-.007,0-.028-.005-.056-.007-.084,0-.1,0-.2.007-.294-.186-.007-.367-.017-.554-.024q-.7-.024-1.408-.044c-2.7-.075-5.471-.1-8.169-.1-4.495,0-8.778.067-12.148.056q-.546,0-1.061-.007c-59.332-.553-75.784,45.019-80.338,65.674h0S801.8,574.576,784.8,578.694s32.35,2.882,42.75,2.882H976.5l-.065-8.456C976.425,572.947,976.412,572.75,976.4,572.569Z" fill="#ffd345"/>
        <path id="Path_82" data-name="Path 82" d="M804.747,609.068l.54-3.555a3.453,3.453,0,0,1,.766-1.823,2.557,2.557,0,0,1,1.979-.652H819.1l1.169-7.38q-3.195-.36-6.412-.54t-7.267-.18a12.748,12.748,0,0,0-4.051.675,7.912,7.912,0,0,0-3.532,2.43,10.08,10.08,0,0,0-2.047,4.995l-4.006,25.335h8.73l1.845-11.52,11.25-.45,1.125-6.93Z" fill="#383838"/>
        <path id="Path_83" data-name="Path 83" d="M830.352,594.938l-15.21,33.435H824.1l2.16-5.31h10.035l.495,5.31h9.045l-4.59-33.435Zm-.855,20.295,5.04-12.87.944,12.87Z" fill="#383838"/>
        <path id="Path_84" data-name="Path 84" d="M870.448,594.96q-1.306-.156-2.565-.225t-2.475-.067a20.037,20.037,0,0,0-6.233.877,9.255,9.255,0,0,0-4.32,2.835,10.647,10.647,0,0,0-2.182,5.2l-.4,2.565a14.31,14.31,0,0,0-.135,1.935,7.57,7.57,0,0,0,2.272,5.647,8.711,8.711,0,0,0,6.367,2.228h1.8a5.892,5.892,0,0,1,2.407.36,1.283,1.283,0,0,1,.743,1.26v.27a1.376,1.376,0,0,1-.045.315l-.09.495a2.289,2.289,0,0,1-.608,1.282,2.857,2.857,0,0,1-1.485.675,14.493,14.493,0,0,1-2.723.2q-2.61,0-5.287-.113t-4.793-.292l-1.08,6.93q1.172.315,2.79.607t3.758.495q2.138.2,4.838.2a20.69,20.69,0,0,0,7.042-.967,7.9,7.9,0,0,0,3.87-2.813,10.592,10.592,0,0,0,1.688-4.545l.495-3.15a12.468,12.468,0,0,0,.135-1.755,7.153,7.153,0,0,0-2.385-5.513q-2.387-2.181-6.93-2.182h-1.98a2.641,2.641,0,0,1-1.755-.473,1.722,1.722,0,0,1-.54-1.372,3.454,3.454,0,0,1,.022-.382,2.723,2.723,0,0,1,.068-.383l.089-.495a2.181,2.181,0,0,1,.608-1.26,2.8,2.8,0,0,1,1.193-.653,6.167,6.167,0,0,1,1.665-.2q1.483,0,3.307.045t3.69.113q1.866.066,3.488.247l1.08-6.93q-1.395-.36-2.745-.607T870.448,594.96Z" fill="#383838"/>
        <path id="Path_85" data-name="Path 85" d="M879.942,594.938l-1.26,7.83h8.28l-4.051,25.6h8.73l4.05-25.6h8.28l1.26-7.83Z" fill="#383838"/>
        <path id="Path_86" data-name="Path 86" d="M929.127,595.86a13.371,13.371,0,0,0-5.58-.922h-13.77l-5.219,33.435h13.634a19.022,19.022,0,0,0,8.73-1.688q3.24-1.687,3.96-6.187a12.806,12.806,0,0,0,.248-1.822q.023-.652.022-1.1a8.679,8.679,0,0,0-.517-3.218,4.821,4.821,0,0,0-1.6-2.092,8.013,8.013,0,0,0-2.79-1.26,7.476,7.476,0,0,0,4.186-2.43,8.253,8.253,0,0,0,1.934-4.14q.09-.63.135-1.215c.029-.39.045-.78.045-1.17a8.616,8.616,0,0,0-.742-3.668A5.319,5.319,0,0,0,929.127,595.86Zm-6.165,21.263a2.369,2.369,0,0,1-.045.45,4.359,4.359,0,0,1-.54,1.777,2.189,2.189,0,0,1-1.148.923,5.684,5.684,0,0,1-1.912.27H914.5l.9-5.85h4.68a3.934,3.934,0,0,1,2.228.472,1.738,1.738,0,0,1,.652,1.508Zm.878-11.97c-.045.24-.1.525-.157.855a3.6,3.6,0,0,1-.7,1.418,2.263,2.263,0,0,1-1.867.652h-4.68l.855-5.31h4.41a2.912,2.912,0,0,1,1.665.382,1.515,1.515,0,0,1,.54,1.328A3.672,3.672,0,0,1,923.84,605.153Z" fill="#383838"/>
        <path id="Path_87" data-name="Path 87" d="M954.326,613.973a20.536,20.536,0,0,1-.765,3.352,6.647,6.647,0,0,1-1.08,2.093,3.425,3.425,0,0,1-1.507,1.08,6.057,6.057,0,0,1-2.048.315,4.143,4.143,0,0,1-3.06-.9,3.58,3.58,0,0,1-.855-2.565,10.158,10.158,0,0,1,.135-1.575q.135-.855.27-1.8l3.015-19.035H939.7l-2.835,17.685q-.225,1.485-.405,2.9a20.69,20.69,0,0,0-.18,2.588q0,5.535,2.858,8.032t8.527,2.5a28.565,28.565,0,0,0,5.715-.518,10.873,10.873,0,0,0,4.388-1.912,10.624,10.624,0,0,0,3.127-4.028,25.428,25.428,0,0,0,1.935-6.862l3.24-20.385h-8.73Z" fill="#383838"/>
        <path id="Path_88" data-name="Path 88" d="M966.432,628.373h8.73l5.31-33.435h-8.729Z" fill="#383838"/>
        <path id="Path_89" data-name="Path 89" d="M991.632,620.093a1.671,1.671,0,0,1-.495-1.3v-.27a1.272,1.272,0,0,1,.045-.315l3.689-23.265h-8.729l-3.871,24.435q-.09.585-.134,1.147c-.031.376-.045.743-.045,1.1a6.308,6.308,0,0,0,1.957,5.085,7.822,7.822,0,0,0,5.242,1.665h12.33l1.261-7.83h-9.631A2.372,2.372,0,0,1,991.632,620.093Z" fill="#383838"/>
        <path id="Path_90" data-name="Path 90" d="M1031.365,596.423a14.583,14.583,0,0,0-7.245-1.485h-13.095l-5.31,33.435h12.825a24.046,24.046,0,0,0,6.436-.788A12.605,12.605,0,0,0,1029.9,625a13.818,13.818,0,0,0,3.466-4.77,27.716,27.716,0,0,0,2.047-7.335q.271-1.665.383-3.24t.112-3.015a17.275,17.275,0,0,0-.99-6.1A7.859,7.859,0,0,0,1031.365,596.423Zm-4.32,12.352q-.135,1.147-.359,2.723a26.437,26.437,0,0,1-.991,4.14,9.339,9.339,0,0,1-1.44,2.79,5.254,5.254,0,0,1-2.047,1.6,6.786,6.786,0,0,1-2.723.518h-3.78l2.79-17.775h3.465a9.715,9.715,0,0,1,2.993.382,2.957,2.957,0,0,1,1.688,1.3,5.168,5.168,0,0,1,.54,2.588A16.219,16.219,0,0,1,1027.045,608.775Z" fill="#383838"/>
      </g>
    </g>
  </g>
</svg>
